<svg xmlns="http://www.w3.org/2000/svg" width="36.406" height="30.536" viewBox="0 0 36.406 30.536"><path d="M1286.332,164.4a.6.6,0,0,0-.6.6v8.214a.6.6,0,1,0,1.2,0v-8.214A.6.6,0,0,0,1286.332,164.4Z" transform="translate(-1268.125 -147.965)" fill="#202020"/><path d="M1279.291,164.4a.6.6,0,0,0-.6.6v8.214a.6.6,0,1,0,1.2,0v-8.214A.6.6,0,0,0,1279.291,164.4Z" transform="translate(-1268.125 -147.965)" fill="#202020"/><path d="M1293.374,164.4a.6.6,0,0,0-.6.6v8.214a.6.6,0,1,0,1.2,0v-8.214A.6.6,0,0,0,1293.374,164.4Z" transform="translate(-1268.125 -147.965)" fill="#202020"/><path d="M1303.932,159.7h-3.251L1290.3,148.164a.6.6,0,0,0-.893.8l9.661,10.734h-25.417l9.6-10.736a.6.6,0,1,0-.9-.8l-10.32,11.535h-3.314a.6.6,0,0,0,0,1.2h1.912l3.368,17.116a.6.6,0,0,0,.589.484h23.469a.6.6,0,0,0,.587-.482l3.425-17.118h1.857a.6.6,0,0,0,0-1.2Zm-6.362,17.6h-22.483l-3.226-16.4h28.991Z" transform="translate(-1268.125 -147.965)" fill="#202020"/></svg>