<svg xmlns="http://www.w3.org/2000/svg" width="173.496" height="166.452" viewBox="0 0 173.496 166.452"><g transform="translate(-1186.223 -812.173)"><g transform="translate(1218.656 832.426)"><path d="M1266.66,824.959c13.95,1.406,29.525,3.589,41.83,9.941a48.2,48.2,0,0,1,6.952,4.338,47.513,47.513,0,0,1,12.322,15.815,52.091,52.091,0,0,1,3.477,9.347c3.281,12.586,1.164,26.354-8.369,34.826-19.064,15.886-37.069,41.305-64.358,34.128a83.249,83.249,0,0,1-9.971-2.762c-22.941-7.933-43.1-26.467-42.171-51.488,2.118-18,11.651-36.009,26.433-47.614a35.927,35.927,0,0,1,9.668-4.716,38.065,38.065,0,0,1,11.4-1.7A73.008,73.008,0,0,1,1266.66,824.959Z" transform="translate(-1206.341 -824.736)" fill="#f6f6f6"/></g><g transform="translate(1203.928 819.513)"><path d="M1273.209,952.43a45.915,45.915,0,0,1-11.732-1.562,102.271,102.271,0,0,1-12.227-3.387c-24.761-8.562-53.239-30.365-52.007-63.629,2.691-22.89,14.864-44.813,32.567-58.71a44.854,44.854,0,0,1,12.054-5.889,47.538,47.538,0,0,1,14.158-2.109,89.415,89.415,0,0,1,15.662-.143l.019,0c17.86,1.8,36.441,4.525,51.338,12.217a60.086,60.086,0,0,1,8.6,5.367,58.577,58.577,0,0,1,15.275,19.593,64.419,64.419,0,0,1,4.3,11.551c4.441,17.036.435,33.63-10.457,43.313-4.722,3.935-9.271,8.238-14.09,12.793C1310.719,936.915,1294.309,952.43,1273.209,952.43Zm-8.662-134.09c-2.866,0-5.687.137-8.443.411a46.15,46.15,0,0,0-13.757,2.041,43.166,43.166,0,0,0-11.583,5.649c-17.331,13.605-29.277,35.126-31.913,57.535-1.2,32.318,26.685,53.6,50.925,61.981a101.147,101.147,0,0,0,12.073,3.342c26.145,6.871,45.244-11.176,63.711-28.635,4.624-4.372,9.406-8.891,14.147-12.843,10.417-9.26,14.237-25.237,9.95-41.679a63.017,63.017,0,0,0-4.19-11.256,56.971,56.971,0,0,0-14.827-19.035,58.5,58.5,0,0,0-8.338-5.2c-14.655-7.564-33.051-10.26-50.75-12.043Q1268.02,818.338,1264.547,818.34Z" transform="translate(-1197.205 -816.726)" fill="#f6f6f6"/></g><g transform="translate(1234.111 812.173)"><circle cx="8.147" cy="8.147" r="8.147" fill="#19c600"/></g><g transform="translate(1294.856 966.893)"><circle cx="5.866" cy="5.866" r="5.866" fill="#ff331c"/></g><g transform="translate(1186.223 849.2)"><g transform="translate(10.49 41.798)"><path d="M1192.73,861.067l11.617,59.07h78.76l11.814-59.07Z" transform="translate(-1192.73 -861.067)" fill="#fff"/></g><g transform="translate(10.49 41.493)"><path d="M1275.186,918.911c-7.958-7.954-53.235-6.591-57.077-10.432s-7.41-34.026-7.41-47.2l.06-.4H1192.73l11.617,59.07h78.759l.511-2.555C1280.675,919.195,1277.833,919.84,1275.186,918.911Z" transform="translate(-1192.73 -860.878)" fill="#f6f6f6"/></g><g transform="translate(44.712 25.073)"><path d="M1213.957,850.693" transform="translate(-1213.957 -850.693)" fill="none" stroke="#202020" stroke-linecap="round" stroke-linejoin="round" stroke-width="3"/></g><g transform="translate(44.712 28.233)"><path d="M1213.957,852.653" transform="translate(-1213.957 -852.653)" fill="none" stroke="#202020" stroke-linecap="round" stroke-linejoin="round" stroke-width="3"/></g><g transform="translate(16.093 39.38)"><path d="M1280.979,923.473H1202.22a2.417,2.417,0,0,1-2.373-1.952l-3.6-18.279a2.418,2.418,0,1,1,4.746-.932l3.21,16.326H1279l11.424-57.125a2.418,2.418,0,0,1,4.743.948l-11.814,59.07A2.418,2.418,0,0,1,1280.979,923.473Z" transform="translate(-1196.205 -859.567)" fill="#202020"/></g><g transform="translate(13.882 68.927)"><path d="M1197.417,883.576a2.419,2.419,0,0,1-2.37-1.951l-.167-.845a2.419,2.419,0,0,1,4.746-.937l.166.846a2.419,2.419,0,0,1-1.9,2.841A2.476,2.476,0,0,1,1197.417,883.576Z" transform="translate(-1194.833 -877.895)" fill="#202020"/></g><g transform="translate(8.071 39.379)"><path d="M1197.584,884.427a2.418,2.418,0,0,1-2.37-1.952l-3.938-20.023a2.418,2.418,0,0,1,4.744-.932l3.94,20.023a2.418,2.418,0,0,1-1.907,2.839A2.324,2.324,0,0,1,1197.584,884.427Z" transform="translate(-1191.23 -859.567)" fill="#202020"/></g><g transform="translate(12.011)"><path d="M1196.089,879.357a2.417,2.417,0,0,1-1.8-4.03l35.244-39.379a2.418,2.418,0,1,1,3.6,3.224l-35.244,39.379A2.417,2.417,0,0,1,1196.089,879.357Zm94.317,0a2.41,2.41,0,0,1-1.8-.8l-35.444-39.379a2.42,2.42,0,0,1,3.6-3.237L1292.2,875.32a2.417,2.417,0,0,1-1.8,4.037Z" transform="translate(-1193.673 -835.14)" fill="#202020"/></g><g transform="translate(0 39.38)"><path d="M1271.339,907.722a2.418,2.418,0,0,1-2.418-2.418V877.738a2.418,2.418,0,0,1,4.836,0V905.3A2.419,2.419,0,0,1,1271.339,907.722Zm-23.63,0a2.419,2.419,0,0,1-2.418-2.418V877.738a2.418,2.418,0,0,1,4.837,0V905.3A2.419,2.419,0,0,1,1247.709,907.722Zm-23.628,0a2.419,2.419,0,0,1-2.418-2.418V877.738a2.418,2.418,0,0,1,4.837,0V905.3A2.419,2.419,0,0,1,1224.082,907.722Zm82.7-43.319H1188.641a2.418,2.418,0,0,1,0-4.836h118.138a2.418,2.418,0,0,1,0,4.836Z" transform="translate(-1186.223 -859.567)" fill="#202020"/></g></g><g transform="translate(1250.456 829.469)"><g transform="translate(0 9.193)" opacity="0.05"><ellipse cx="39.61" cy="38.855" rx="39.61" ry="38.855" fill="#1c1c1c"/></g><g transform="translate(10.562 2.405)"><circle cx="38.855" cy="38.855" r="38.855" fill="#19c600"/></g><g transform="translate(11.198 27.653)"><path d="M1309.771,861.2a38.855,38.855,0,0,1-75.951-16.422,40.7,40.7,0,0,1,1.33-4.728,38.871,38.871,0,0,0,75.361,16.3A41.086,41.086,0,0,1,1309.771,861.2Z" transform="translate(-1233.011 -840.054)" fill="#19ad00"/></g><g transform="translate(8.134)"><path d="M1272.31,905.465a41.288,41.288,0,0,1-8.112-81.751,41.518,41.518,0,0,1,35.306,9.325,2.418,2.418,0,1,1-3.177,3.647,36.445,36.445,0,0,0-59.65,34.724,36.445,36.445,0,0,0,71.438-14.474,2.417,2.417,0,1,1,4.738-.961,41.275,41.275,0,0,1-32.258,48.655A41.683,41.683,0,0,1,1272.31,905.465Z" transform="translate(-1231.111 -822.901)" fill="#202020"/></g><g transform="translate(80.38 18.944)"><path d="M1278.871,840.4a2.419,2.419,0,0,1-2.115-1.243c-.156-.284-.317-.564-.48-.835a2.417,2.417,0,1,1,4.134-2.507c.2.321.387.656.574.99a2.421,2.421,0,0,1-2.112,3.6Z" transform="translate(-1275.924 -834.652)" fill="#202020"/></g><g transform="translate(30.76 30.841)"><path d="M1259.248,867.658a2.412,2.412,0,0,1-1.71-.709l-11.683-11.683a2.418,2.418,0,1,1,3.42-3.419l9.974,9.974,19.083-19.08a2.418,2.418,0,0,1,3.421,3.419l-20.8,20.789A2.411,2.411,0,0,1,1259.248,867.658Z" transform="translate(-1245.146 -842.032)" fill="#fff"/></g></g></g></svg>