<svg xmlns="http://www.w3.org/2000/svg" width="64.155" height="51.461" viewBox="0 0 64.155 51.461"><g transform="translate(-85.58 -565.401)"><path d="M140.58,566.4h0a6,6,0,0,1,6,6v4h-12v-4A6,6,0,0,1,140.58,566.4Z" fill="#dcdcdc"/><path d="M86.58,601.852v3.838a10.162,10.162,0,0,0,10.161,10.162H114.58l8,.006-2.091-.913a9.857,9.857,0,0,1-5.913-9.035v-4.058Z" fill="#dcdcdc"/><path d="M121.063,615.852h1.521l-1.435-.627Z" fill="#dcdcdc"/><path d="M134.58,566.4H106.422a5.842,5.842,0,0,0-5.842,5.842h0v29.609h14v3.975a10.03,10.03,0,0,0,10.031,10.025h0a9.97,9.97,0,0,0,9.969-9.969V572.2a5.839,5.839,0,0,1,2.976-5.09l1.257-.708Z" fill="#f6f6f6"/><path d="M115.262,566.4h-8.84a5.842,5.842,0,0,0-5.842,5.842h0v29.609h4.855s-1.511-18.722-1.511-25.447C103.924,567.252,110.373,567.252,115.262,566.4Z" fill="#dcdcdc"/><circle cx="10.89" cy="10.89" r="10.89" transform="translate(120.232 587.359)" fill="#19c600"/><path d="M126.222,602.316c-4.277-6.915-.008-13.084,4.89-14.956a10.889,10.889,0,1,0,7.7,18.6C134.158,606.784,129.247,607.206,126.222,602.316Z" fill="#19ad00"/><path d="M121.822,577.4h2.758a1,1,0,0,0,0-2h-2.758a1,1,0,0,0,0,2Z" fill="#202020"/><path d="M108.58,585.4h12a1,1,0,0,0,0-2h-12a1,1,0,1,0,0,2Z" fill="#202020"/><path d="M108.58,577.4h9.77a1,1,0,0,0,0-2h-9.77a1,1,0,1,0,0,2Z" fill="#202020"/><path d="M149.442,615.146l-9.233-9.235a12.019,12.019,0,0,0,2.712-7.006,11.838,11.838,0,0,0-.6-4.44,12.022,12.022,0,0,0-6.746-7.212V577.4h11a1,1,0,0,0,1-1v-4a7.009,7.009,0,0,0-7-7h-34a7.009,7.009,0,0,0-7,7v28.448h-13a1,1,0,0,0-1,1v4a11.013,11.013,0,0,0,11,11h27.476c.179.008.359.013.539.013a10.989,10.989,0,0,0,10.349-7.358,12.1,12.1,0,0,0,3.845-2.185l9.239,9.241a1,1,0,1,0,1.414-1.414ZM140.58,567.4a5.006,5.006,0,0,1,5,5v3h-10v-3A5.006,5.006,0,0,1,140.58,567.4Zm-44,47.448a9.01,9.01,0,0,1-9-9v-3h12.981c.007,0,.012,0,.019,0s.013,0,.019,0H113.58v3a11.076,11.076,0,0,0,4.678,9Zm32.28-1.075a8.946,8.946,0,0,1-4.129,1.086,1.069,1.069,0,0,0-.151-.011h-.458a9.021,9.021,0,0,1-8.542-9v-4a1,1,0,0,0-1-1h-13V572.4a5.006,5.006,0,0,1,5-5h29.111a6.975,6.975,0,0,0-2.111,5v14.215a11.427,11.427,0,0,0-1.8-.245,11.818,11.818,0,0,0-8.594,3.017,11.971,11.971,0,0,0-1.781,2.013H108.58a1,1,0,1,0,0,2h11.688a11.895,11.895,0,0,0,10.205,16.733q.334.018.669.018a12.108,12.108,0,0,0,1.4-.093A8.941,8.941,0,0,1,128.86,613.774Zm9.033-8.3a9.823,9.823,0,0,1-7.31,2.667,9.9,9.9,0,0,1,.533-19.785c.186,0,.371,0,.558.014a10.067,10.067,0,0,1,8.758,6.737,10.073,10.073,0,0,1-2.539,10.367Z" fill="#202020"/><path d="M129.877,600.953l-2.415-2.6.825-.767,1.645,1.769,3.493-3.309.77.823Z" fill="#fff"/></g></svg>