<svg xmlns="http://www.w3.org/2000/svg" width="33.908" height="28.373" viewBox="0 0 33.908 28.373"><path d="M1423.6,82.036a.569.569,0,0,0,.029-.105l1.747-21.974a.6.6,0,0,0-.6-.648h-5.649l.1-1.3c.265-2.667,2.406-2.7,2.427-2.7h2.621a.6.6,0,0,0,0-1.2h-2.621a3.854,3.854,0,0,0-3.622,3.791l-.111,1.408H1410.8a.6.6,0,0,0-.6.648l.558,7.017h-2.583a4.309,4.309,0,0,0-4.263-3.783,4.175,4.175,0,0,0-.516.053,2.909,2.909,0,0,0-3.873-1.678l-1.247-4.655a.6.6,0,1,0-1.158.31l1.334,4.981a.642.642,0,0,0,.044.1c-.057.064-.106.134-.158.2-.076-.026-.156-.041-.233-.063l-3.3-5.589a.6.6,0,1,0-1.033.61l2.858,4.835a4.309,4.309,0,0,0-4,4.285c0,.13.013.263.026.395h-.586a.6.6,0,0,0-.6.649,14.04,14.04,0,0,0,13.97,12.9q.58,0,1.166-.047a14.068,14.068,0,0,0,5.113-1.423l.178,2.23h-11.016a.6.6,0,0,0,0,1.2h22.149a.617.617,0,0,0,.227-.045.6.6,0,0,0,.062-.04.623.623,0,0,0,.125-.084.6.6,0,0,0,.052-.069.572.572,0,0,0,.076-.113A.515.515,0,0,0,1423.6,82.036Zm.529-21.527-.221,2.775a3.745,3.745,0,0,0-3.676.078l-.809.615a2.694,2.694,0,0,1-3.475-.123,3.784,3.784,0,0,0-4.28-.607l-.218-2.738Zm-17.151,6.465h-6.126a3.108,3.108,0,0,1,6.126,0Zm-6.315-4.441a1.729,1.729,0,0,1,1.559,1.006,4.319,4.319,0,0,0-1.464,1.047,4.312,4.312,0,0,0-1.329-1.517A1.688,1.688,0,0,1,1400.659,62.533Zm-6.835,4.046a3.111,3.111,0,0,1,6.125-.777,4.286,4.286,0,0,0-.3,1.172h-5.772A3.025,3.025,0,0,1,1393.824,66.579Zm12.682,12.7a12.842,12.842,0,0,1-13.774-11.106h25.459A12.792,12.792,0,0,1,1406.506,79.28Zm12.95-11.657a.6.6,0,0,0-.6-.649h-6.9l-.19-2.387a2.585,2.585,0,0,1,3.354.142,3.909,3.909,0,0,0,5.035.193l.723-.557a2.477,2.477,0,0,1,2.913.292l-1.321,16.626H1413.1l-.205-2.576a.6.6,0,0,0-.086-.255A13.983,13.983,0,0,0,1419.456,67.623Z" transform="translate(-1391.466 -54.11)" fill="#202020"/></svg>