<svg xmlns="http://www.w3.org/2000/svg" width="38.981" height="32.647" viewBox="0 0 38.981 32.647"><g transform="translate(0)"><path d="M378.384,321.911H365.722a13.158,13.158,0,1,0,0,26.317h.765v5.83a.5.5,0,0,0,.82.385l7.46-6.215h3.621a13.158,13.158,0,0,0,0-26.317Zm8.6,21.754a12.078,12.078,0,0,1-8.6,3.563h-3.8a.5.5,0,0,0-.321.116l-6.779,5.647v-5.263a.5.5,0,0,0-.5-.5h-1.265a12.158,12.158,0,1,1,0-24.317h12.662a12.159,12.159,0,0,1,8.6,20.754Z" transform="translate(-352.562 -321.911)" fill="#212121"/><path d="M364.455,333.3a1.766,1.766,0,1,0,1.767,1.766A1.768,1.768,0,0,0,364.455,333.3Zm0,2.532a.766.766,0,1,1,.767-.766A.767.767,0,0,1,364.455,335.836Z" transform="translate(-352.562 -321.911)" fill="#212121"/><path d="M372.052,333.3a1.766,1.766,0,1,0,1.765,1.766A1.769,1.769,0,0,0,372.052,333.3Zm0,2.532a.766.766,0,1,1,.765-.766A.768.768,0,0,1,372.052,335.836Z" transform="translate(-352.562 -321.911)" fill="#212121"/><path d="M379.646,333.3a1.766,1.766,0,1,0,1.766,1.766A1.768,1.768,0,0,0,379.646,333.3Zm0,2.532a.766.766,0,1,1,.766-.766A.767.767,0,0,1,379.646,335.836Z" transform="translate(-352.562 -321.911)" fill="#212121"/></g></svg>