<svg xmlns="http://www.w3.org/2000/svg" width="30.202" height="43.502" viewBox="0 0 30.202 43.502"><g transform="translate(-210.722 -1689.626)"><g transform="translate(210.722 1694.877)"><path d="M219.417,1693.51h-7.358a.722.722,0,0,0-.722.685l-.613,12.291a4.245,4.245,0,0,0,3.067,4.156v19.166a1.943,1.943,0,0,0,1.946,1.947h0a1.948,1.948,0,0,0,1.947-1.947V1710.64a4.254,4.254,0,0,0,3.071-4.179l-.617-12.268a.722.722,0,0,0-.721-.683Zm-2.545,15.831a.72.72,0,0,0-.628.715v19.752a.506.506,0,0,1-.506.5h0a.506.506,0,0,1-.505-.5v-19.752a.721.721,0,0,0-.627-.715,2.8,2.8,0,0,1-2.44-2.805l.578-11.583h1.047v8.479a.721.721,0,0,0,1.442,0v-8.479h1.011v8.479a.721.721,0,0,0,1.442,0v-8.479h1.047l.581,11.558a2.8,2.8,0,0,1-2.443,2.829Z" transform="translate(-210.723 -1693.508)" fill="#ff331c"/></g><path d="M237.516,1698.22a8.582,8.582,0,1,0-13.641,6.921h0V1714a3.787,3.787,0,0,0,3.681,3.778v13.4a1.95,1.95,0,0,0,3.9,0V1706.43a8.586,8.586,0,0,0,6.06-8.21Zm-7.507,32.955a.5.5,0,0,1-.148.356.523.523,0,0,1-.862-.357v-13.387h1.01Zm0-24.448v9.617h-2.345a2.35,2.35,0,0,1-2.346-2.346v-8h0a8.328,8.328,0,0,0,4.693.734Zm2.193-6.254-1.02,1.02-2.2-2.2-2.233,2.233-1.02-1.02,2.233-2.234-2.341-2.341,1.02-1.019,2.341,2.341,2.245-2.243,1.02,1.02L230,1698.28Z" transform="translate(3.408)" fill="#ff331c"/></g></svg>