<svg xmlns="http://www.w3.org/2000/svg" width="35.091" height="32.493" viewBox="0 0 35.091 32.493"><path d="M1303.1,65.436a.6.6,0,0,0-.442-.193h-.53a5.281,5.281,0,0,0-3.877-4.583l3.643-4.049a.6.6,0,1,0-.892-.8l-4.19,4.655a5.234,5.234,0,0,0-.69.07,3.772,3.772,0,0,0-.168-.39l3.586-7.227a.6.6,0,1,0-1.074-.533l-3.311,6.671a3.5,3.5,0,0,0-5.267.554,5.248,5.248,0,0,0-5.7,1.387,8.466,8.466,0,0,0-2.141-.508,3.531,3.531,0,0,0-6.789.041,5.175,5.175,0,0,0-.709-.071,5.291,5.291,0,0,0-5.25,4.785h-.529a.6.6,0,0,0-.6.649,17.6,17.6,0,0,0,17.514,16.172q.727,0,1.461-.06a17.538,17.538,0,0,0,16.112-16.112A.607.607,0,0,0,1303.1,65.436Zm-2.171-.193h-8.1a4.08,4.08,0,0,1,8.1,0Zm-8.163-5.936a2.349,2.349,0,0,1,2.187,1.526,5.29,5.29,0,0,0-2.1,1.519,5.287,5.287,0,0,0-1.878-2.175A2.288,2.288,0,0,1,1292.768,59.307Zm-4.7,1.175a4.1,4.1,0,0,1,3.975,3.138,5.262,5.262,0,0,0-.408,1.623h-7.6a3.975,3.975,0,0,1-.064-.659A4.107,4.107,0,0,1,1288.065,60.482Zm-5.258,4.761h-2.989c-.016-.157-.039-.312-.069-.467-.009-.047-.016-.093-.026-.14a5.267,5.267,0,0,0-.267-.858c-.019-.048-.038-.1-.059-.144s-.041-.106-.065-.157a2.344,2.344,0,0,1,2.269-1.819,6.866,6.866,0,0,1,1.863.344,5.23,5.23,0,0,0-.7,2.582A5.076,5.076,0,0,0,1282.807,65.243Zm-4.145-6.094a2.344,2.344,0,0,1,2.137,1.414,3.566,3.566,0,0,0-2.281,1.72,5.3,5.3,0,0,0-2.1-1.467A2.327,2.327,0,0,1,1278.662,59.149Zm-4.114,2.509a4.1,4.1,0,0,1,3.735,2.426c.02.043.041.086.059.129a4.221,4.221,0,0,1,.208.668c.009.043.016.087.024.13.014.075.013.155.023.232h-8.1A4.094,4.094,0,0,1,1274.548,61.658Zm12.5,19.15a16.4,16.4,0,0,1-17.615-14.365H1302A16.34,16.34,0,0,1,1287.048,80.808Z" transform="translate(-1268.169 -52.05)" fill="#202020"/><path d="M1291.251,83.343h-11.335a.6.6,0,0,0,0,1.2h11.335a.6.6,0,0,0,0-1.2Z" transform="translate(-1268.169 -52.05)" fill="#202020"/></svg>