<svg xmlns="http://www.w3.org/2000/svg" width="23.444" height="37.268" viewBox="0 0 23.444 37.268"><g transform="translate(0)"><path d="M245.773,386.833h-7.216a.6.6,0,0,0-.6.571l-.6,12.043a4.054,4.054,0,0,0,3.006,3.989V422.3a1.8,1.8,0,0,0,1.8,1.8h0a1.8,1.8,0,0,0,1.8-1.8V403.435a4.063,4.063,0,0,0,3.006-4.008l-.6-12.023A.6.6,0,0,0,245.773,386.833Zm-2.488,15.515a.6.6,0,0,0-.521.6V422.3a.6.6,0,0,1-.6.6h0a.6.6,0,0,1-.6-.6V402.944a.6.6,0,0,0-.522-.6,2.849,2.849,0,0,1-2.484-2.862l.571-11.453h1.235v8.417a.6.6,0,1,0,1.2,0v-8.417h1.2v8.417a.6.6,0,1,0,1.2,0v-8.417H245.2l.569,11.433A2.855,2.855,0,0,1,243.285,402.348Z" transform="translate(-237.356 -386.833)" fill="#212121"/><path d="M260.8,387.433a.6.6,0,0,0-.6-.6,6.62,6.62,0,0,0-6.611,6.612v12.024a3.61,3.61,0,0,0,3.605,3.606h0V422.3a1.8,1.8,0,0,0,3.6,0V408.5c0-.009.005-.016.005-.025Zm-6.012,18.036V393.445a5.421,5.421,0,0,1,4.813-5.379v19.808H257.2A2.409,2.409,0,0,1,254.789,405.469ZM259,422.9a.6.6,0,0,1-.6-.6V409.075h1.2V422.3A.6.6,0,0,1,259,422.9Z" transform="translate(-237.356 -386.833)" fill="#212121"/></g></svg>