<svg xmlns="http://www.w3.org/2000/svg" width="21.445" height="30.763" viewBox="0 0 21.445 30.763"><path d="M1354.637,59.41a.6.6,0,0,0-.444-.2h-11.948c-.132-1.221-.237-2.151-.3-2.608-.416-3.027-3.432-3.69-4.56-3.69h-3.437a.6.6,0,0,0,0,1.2h3.437c.03,0,3.016.072,3.371,2.654.059.428.158,1.3.281,2.444h-3.763a.6.6,0,0,0-.6.655l2.115,23.264a.6.6,0,0,0,.6.546h12.688a.6.6,0,0,0,.6-.546l2.115-23.264A.6.6,0,0,0,1354.637,59.41Zm-1.1,1.005-.281,3.091a4.862,4.862,0,0,0-4.458-.029l-.975.648a3.822,3.822,0,0,1-4.434-.134,4.4,4.4,0,0,0-.693-.463c-.114-1.117-.223-2.171-.322-3.113Zm-12.371,0c.086.811.179,1.709.277,2.664a4.961,4.961,0,0,0-3.234.377l-.276-3.041Zm10.365,22.064h-11.592l-1.61-17.706a3.69,3.69,0,0,1,3.242-.437c.655,6.435,1.44,14.5,1.451,14.621a.6.6,0,0,0,.6.542.584.584,0,0,0,.059,0,.6.6,0,0,0,.54-.656c-.048-.486-.745-7.647-1.365-13.771a4.967,4.967,0,0,0,5.648.046l.892-.6a3.577,3.577,0,0,1,3.741.332Z" transform="translate(-1333.349 -52.916)" fill="#202020"/></svg>