<svg xmlns="http://www.w3.org/2000/svg" width="37.033" height="37.033" viewBox="0 0 37.033 37.033"><g transform="translate(-1500.695 -145.085)"><path d="M1528.169,168.974a3.586,3.586,0,1,0,3.586,3.586A3.59,3.59,0,0,0,1528.169,168.974Zm0,5.971a2.386,2.386,0,1,1,2.387-2.385A2.389,2.389,0,0,1,1528.169,174.945Z" fill="#202020"/><path d="M1537.431,174.432l-1.68-.988a7.829,7.829,0,0,0,0-1.983l1.468-.758a.6.6,0,0,0,.243-.835l-2.393-4.117a.6.6,0,0,0-.82-.217l-.474.275,1.457-7.579h1.893a.6.6,0,0,0,0-1.2h-3.316l-10.571-11.746a.6.6,0,0,0-.892.8l9.848,10.943H1506.28l9.8-10.945a.6.6,0,1,0-.894-.8L1504.67,157.03H1501.3a.6.6,0,1,0,0,1.2h1.957l3.427,17.432a.6.6,0,0,0,.589.484h11.767l1.872,3.221a.6.6,0,0,0,.806.225l1.649-.9a7.93,7.93,0,0,0,1.828.878v1.947a.6.6,0,0,0,.6.6h4.778a.6.6,0,0,0,.6-.6v-1.963a6.788,6.788,0,0,0,1.653-.9l1.617.98a.6.6,0,0,0,.833-.217l2.376-4.175A.6.6,0,0,0,1537.431,174.432Zm-32.956-16.2h29.539l-1.532,7.963a7.059,7.059,0,0,0-1.331-.783V163.6a.6.6,0,0,0-.6-.6h-4.771a.6.6,0,0,0-.6.6v1.789a8.309,8.309,0,0,0-1.772.957l-1.508-.873a.6.6,0,0,0-.821.221l-2.393,4.18a.6.6,0,0,0,.224.821l1.431.811a7.52,7.52,0,0,0-.063,1.061,7.685,7.685,0,0,0,.064.935l-1.61.924a.6.6,0,0,0-.281.365.592.592,0,0,0-.009.152h-10.683Zm30.057,20.062-1.444-.875a.6.6,0,0,0-.7.053,5.644,5.644,0,0,1-2,1.08.6.6,0,0,0-.426.575v1.793h-3.579v-1.793a.6.6,0,0,0-.445-.58,6.7,6.7,0,0,1-2.2-1.042.6.6,0,0,0-.638-.04l-1.459.8-1.8-3.09,1.444-.83a.6.6,0,0,0,.291-.63,6.564,6.564,0,0,1,0-2.406.6.6,0,0,0-.294-.633l-1.268-.719,1.8-3.134,1.328.768a.6.6,0,0,0,.671-.047,7.172,7.172,0,0,1,2.15-1.158.6.6,0,0,0,.409-.568V164.2h3.571v1.611a.6.6,0,0,0,.391.563,5.944,5.944,0,0,1,1.954,1.194.6.6,0,0,0,.707.076l1.332-.774,1.774,3.053-1.291.667a.6.6,0,0,0-.314.642,6.647,6.647,0,0,1,0,2.411.6.6,0,0,0,.285.625l1.522.9Z" fill="#202020"/></g></svg>