<svg xmlns="http://www.w3.org/2000/svg" width="36.991" height="36.991" viewBox="0 0 36.991 36.991">
  <g id="Group_3882" data-name="Group 3882" transform="translate(0.75 0.75)">
    <path id="Path_2373" data-name="Path 2373" d="M133.418,222.97v-13.1a2.275,2.275,0,0,0-2.275-2.275H101.495a3.567,3.567,0,0,0-3.568,3.568V240.38a2.7,2.7,0,0,0,2.7,2.7h12.678" transform="translate(-97.927 -207.591)" fill="none" stroke="#202020" stroke-linecap="round" stroke-linejoin="round" stroke-width="1.5"/>
    <path id="Path_2374" data-name="Path 2374" d="M114.725,224.2l-12.653-12.468m10.5,0h-10.5v10.5" transform="translate(-96.157 -205.821)" fill="none" stroke="#202020" stroke-miterlimit="10" stroke-width="1.5"/>
    <path id="Path_2375" data-name="Path 2375" d="M112.377,226.437l1.69,8.6h11.462l1.718-8.6" transform="translate(-91.756 -199.543)" fill="none" stroke="#202020" stroke-linecap="round" stroke-linejoin="round" stroke-width="1.5"/>
    <path id="Path_2376" data-name="Path 2376" d="M117.907,222.422l-5.129,5.73m8.568-5.73,5.157,5.73" transform="translate(-91.585 -201.257)" fill="none" stroke="#202020" stroke-linecap="round" stroke-linejoin="round" stroke-width="1.5"/>
    <path id="Path_2377" data-name="Path 2377" d="M112.377,226.437h14.87m-9.169,3.074v2.45m3.439-2.45v2.45" transform="translate(-91.756 -199.543)" fill="none" stroke="#202020" stroke-linecap="round" stroke-linejoin="round" stroke-width="1.5"/>
  </g>
</svg>
