<svg xmlns="http://www.w3.org/2000/svg" width="535.646" height="296.299" viewBox="0 0 535.646 296.299">
  <g id="Group_3972" data-name="Group 3972" transform="translate(-986.839 85.802)">
    <g id="No_order_illustration" data-name="No order illustration" transform="translate(986.839 -178.401)">
      <g id="Group_3899" data-name="Group 3899" transform="translate(56.893 92.599)">
        <rect id="Rectangle_2087" data-name="Rectangle 2087" width="66.987" height="0.957" transform="translate(322.015 216.272)" fill="#dcdcdc"/>
        <rect id="Rectangle_2089" data-name="Rectangle 2089" width="0.957" height="8.852" transform="translate(369.384 207.659)" fill="#dcdcdc"/>
        <rect id="Rectangle_2069" data-name="Rectangle 2069" width="66.987" height="0.957" transform="translate(191.869)" fill="#dcdcdc"/>
        <rect id="Rectangle_2070" data-name="Rectangle 2070" width="0.957" height="8.852" transform="translate(239.717 0.718)" fill="#dcdcdc"/>
        <rect id="Rectangle_2071" data-name="Rectangle 2071" width="0.957" height="8.852" transform="translate(210.53 0.718)" fill="#dcdcdc"/>
        <rect id="Rectangle_2072" data-name="Rectangle 2072" width="66.987" height="0.957" transform="translate(225.841 45.934)" fill="#dcdcdc"/>
        <rect id="Rectangle_2073" data-name="Rectangle 2073" width="0.957" height="8.852" transform="translate(244.023 37.321)" fill="#dcdcdc"/>
        <rect id="Rectangle_2074" data-name="Rectangle 2074" width="0.957" height="8.852" transform="translate(273.21 37.321)" fill="#dcdcdc"/>
        <rect id="Rectangle_2075" data-name="Rectangle 2075" width="66.987" height="0.957" transform="translate(314.838 67.465)" fill="#dcdcdc"/>
        <rect id="Rectangle_2076" data-name="Rectangle 2076" width="0.957" height="8.852" transform="translate(333.02 58.853)" fill="#dcdcdc"/>
        <rect id="Rectangle_2077" data-name="Rectangle 2077" width="0.957" height="8.852" transform="translate(362.207 58.853)" fill="#dcdcdc"/>
        <rect id="Rectangle_2081" data-name="Rectangle 2081" width="66.987" height="0.957" transform="translate(193.783 135.887)" fill="#dcdcdc"/>
        <rect id="Rectangle_2082" data-name="Rectangle 2082" width="0.957" height="8.852" transform="translate(211.965 127.275)" fill="#dcdcdc"/>
        <rect id="Rectangle_2083" data-name="Rectangle 2083" width="0.957" height="8.852" transform="translate(241.152 127.275)" fill="#dcdcdc"/>
        <rect id="Rectangle_2084" data-name="Rectangle 2084" width="66.987" height="0.957" transform="translate(214.836 251.2)" fill="#dcdcdc"/>
        <rect id="Rectangle_2085" data-name="Rectangle 2085" width="0.957" height="8.852" transform="translate(233.018 242.588)" fill="#dcdcdc"/>
        <rect id="Rectangle_2086" data-name="Rectangle 2086" width="0.957" height="8.852" transform="translate(262.205 242.588)" fill="#dcdcdc"/>
        <rect id="Rectangle_2088" data-name="Rectangle 2088" width="0.957" height="8.852" transform="translate(340.197 207.659)" fill="#dcdcdc"/>
        <rect id="Rectangle_2096" data-name="Rectangle 2096" width="66.987" height="0.957" transform="translate(22.967 151.677)" fill="#dcdcdc"/>
        <rect id="Rectangle_2097" data-name="Rectangle 2097" width="0.957" height="8.852" transform="translate(41.149 143.065)" fill="#dcdcdc"/>
        <rect id="Rectangle_2098" data-name="Rectangle 2098" width="0.957" height="8.852" transform="translate(70.336 143.065)" fill="#dcdcdc"/>
        <rect id="Rectangle_2099" data-name="Rectangle 2099" width="66.987" height="0.957" transform="translate(46.412 10.048)" fill="#dcdcdc"/>
        <rect id="Rectangle_2100" data-name="Rectangle 2100" width="0.957" height="8.852" transform="translate(94.26 10.766)" fill="#dcdcdc"/>
        <rect id="Rectangle_2101" data-name="Rectangle 2101" width="0.957" height="8.852" transform="translate(65.073 10.766)" fill="#dcdcdc"/>
        <rect id="Rectangle_2102" data-name="Rectangle 2102" width="66.987" height="0.957" transform="translate(113.878 104.308)" fill="#dcdcdc"/>
        <rect id="Rectangle_2103" data-name="Rectangle 2103" width="0.957" height="8.852" transform="translate(161.725 105.026)" fill="#dcdcdc"/>
        <rect id="Rectangle_2104" data-name="Rectangle 2104" width="0.957" height="8.852" transform="translate(132.538 105.026)" fill="#dcdcdc"/>
        <rect id="Rectangle_2105" data-name="Rectangle 2105" width="66.987" height="0.957" transform="translate(0 103.83)" fill="#dcdcdc"/>
        <rect id="Rectangle_2106" data-name="Rectangle 2106" width="0.957" height="8.852" transform="translate(47.847 104.547)" fill="#dcdcdc"/>
        <rect id="Rectangle_2107" data-name="Rectangle 2107" width="0.957" height="8.852" transform="translate(18.661 104.547)" fill="#dcdcdc"/>
        <rect id="Rectangle_2108" data-name="Rectangle 2108" width="66.987" height="0.957" transform="translate(80.384 55.982)" fill="#dcdcdc"/>
        <rect id="Rectangle_2109" data-name="Rectangle 2109" width="0.957" height="8.852" transform="translate(98.566 47.369)" fill="#dcdcdc"/>
        <rect id="Rectangle_2110" data-name="Rectangle 2110" width="0.957" height="8.852" transform="translate(127.754 47.369)" fill="#dcdcdc"/>
      </g>
      <path id="Path_2697" data-name="Path 2697" d="M629.682,662.787q-41.374-6.06-79.579-10.448l10.071-16.3c-3.4-1-18.314,8.288-18.314,8.288l13.221-47.383c-17.077,1.645-25.766,50.048-25.766,50.048l-19.079-16.466,9.234,18.456c-77.954-8.046-145.278-11.208-201.906-11.572l8.62-13.949c-3.4-1-18.314,8.288-18.314,8.288l13.221-47.383c-17.077,1.645-25.766,50.048-25.766,50.048L276.25,617.949l9.78,19.548c-47.473.575-86.187,3.109-116.069,6.064,8.72-21.752,38.335-42.341,38.335-42.341-22.615,5.526-34.479,14.907-40.679,23.675a325.06,325.06,0,0,1,26.4-131.9s-46.755,84.942-40.8,142.131l.712,10.154c-39.628,4.567-59.895,17.533-59.895,17.533Z" transform="translate(-94.035 -273.91)" fill="#dcdcdc"/>
      <g id="Group_3903" data-name="Group 3903" transform="translate(147.487 168.94)">
        <circle id="Ellipse_79" data-name="Ellipse 79" cx="4.622" cy="4.622" r="4.622" transform="translate(151.669)" fill="#eb2c17"/>
        <circle id="Ellipse_80" data-name="Ellipse 80" cx="4.622" cy="4.622" r="4.622" transform="translate(151.669 36.552)" fill="#eb2c17"/>
        <circle id="Ellipse_81" data-name="Ellipse 81" cx="4.622" cy="4.622" r="4.622" transform="translate(197.884 45.795)" fill="#eb2c17"/>
        <path id="Path_3074" data-name="Path 3074" d="M567.908,352.566c-1.93-3.183-8.671-3.1-8.671-3.1-6.138,9.119-20.892-.568-20.892-.568-10.958,4.9-17.644-10.721-17.644-10.721-14.745-2.2-12.467-17.69-12.467-17.69-7.336-1.473-5.277-14.736-5.277-14.736s4.07-3.339,2.067-5.781c-1.273-1.553-1.353-6.009-1.241-9.051a101.187,101.187,0,1,0,65.29,61.3C568.553,352.8,568.15,352.966,567.908,352.566Z" transform="translate(-373 -281.918)" fill="#3f3d56"/>
        <path id="Path_3075" data-name="Path 3075" d="M567.908,352.566c-1.93-3.183-8.671-3.1-8.671-3.1-6.138,9.119-20.892-.568-20.892-.568-10.958,4.9-17.644-10.721-17.644-10.721-14.745-2.2-12.467-17.69-12.467-17.69-7.336-1.473-5.277-14.736-5.277-14.736s4.07-3.339,2.067-5.781c-1.273-1.553-1.353-6.009-1.241-9.051a101.187,101.187,0,1,0,65.29,61.3C568.553,352.8,568.15,352.966,567.908,352.566Z" transform="translate(-373 -281.918)" opacity="0.1"/>
        <path id="Path_3076" data-name="Path 3076" d="M562.064,354.474c-1.789-2.95-8.036-2.874-8.036-2.874-5.689,8.452-19.362-.526-19.362-.526-10.156,4.544-16.352-9.936-16.352-9.936-13.665-2.043-11.554-16.4-11.554-16.4-6.8-1.365-4.891-13.657-4.891-13.657s3.772-3.094,1.916-5.358c-1.18-1.439-1.254-5.569-1.15-8.388a93.779,93.779,0,1,0,60.51,56.811C562.662,354.694,562.289,354.844,562.064,354.474Z" transform="translate(-377.886 -280.914)" fill="#3f3d56"/>
        <path id="Path_3081" data-name="Path 3081" d="M277.434,449.785l2.124,3.541,4.248,7.081,1.416,4.956-2.832,4.248,3.54,8.5,1.416,4.956-2.832,2.832,5.664,4.248" transform="translate(-235.658 -329.749)" opacity="0.1"/>
        <path id="Path_3082" data-name="Path 3082" d="M517.357,375.631V381.3l-3.541,9.2-2.124,4.956,3.54,6.373,1.416,4.248,5.664,2.124,2.124,3.541v8.5" transform="translate(-371.496 -286.75)" opacity="0.1"/>
        <path id="Path_3083" data-name="Path 3083" d="M794.4,500.574l-5.665,3.54s-2.832,1.416-2.832,2.124V511.9" transform="translate(-612.427 -406.029)" opacity="0.1"/>
        <path id="Path_3084" data-name="Path 3084" d="M550.455,341.925l1.416,7.081-1.416,4.957" transform="translate(-393.973 -267.205)" opacity="0.1"/>
        <path id="Path_3085" data-name="Path 3085" d="M551.233,493.6l-4.248,6.372-4.956,4.248v2.832l2.832,3.54v4.248l-2.124,4.248" transform="translate(-389.087 -355.159)" opacity="0.1"/>
        <path id="Path_3086" data-name="Path 3086" d="M415.1,207.1h-7.081l-5.665,4.956-9.2,4.956-4.248,3.54v1.416l-9.2,4.956-2.832,4.956" transform="translate(-293.316 -189.025)" opacity="0.1"/>
        <path id="Path_3087" data-name="Path 3087" d="M448.611,347.211l-6.373,12.745-2.124,4.956-4.956,6.373s-3.54,6.372-4.248,7.081-5.665,2.124-5.665,2.124l7.081,7.081" transform="translate(-403.295 -317.099)" opacity="0.1"/>
        <path id="Path_3088" data-name="Path 3088" d="M212.584,352.037l-1.416,9.2,1.416,5.665v9.913l-4.248,18.41,4.248,4.956,4.956,6.373" transform="translate(-195.591 -273.069)" opacity="0.1"/>
        <path id="Path_3089" data-name="Path 3089" d="M243.727,362.149l4.248,2.124,2.832,9.2,5.665-1.416,2.832,4.957" transform="translate(-216.113 -278.933)" opacity="0.1"/>
        <path id="Path_3090" data-name="Path 3090" d="M429.112,572.445l11.329-1.416,4.956-4.956h7.081" transform="translate(-323.611 -397.18)" opacity="0.1"/>
        <path id="Path_3091" data-name="Path 3091" d="M265.636,545.848l4.248,4.956,7.081,2.124,4.957,1.416,1.416,7.788" transform="translate(-228.817 -385.453)" opacity="0.1"/>
        <path id="Path_3092" data-name="Path 3092" d="M464.5,465.094l4.957-3.54,2.124-5.665,4.248-.708,2.124-7.081" transform="translate(-344.133 -328.772)" opacity="0.1"/>
      </g>
    </g>
  </g>
</svg>
