<svg xmlns="http://www.w3.org/2000/svg" width="60.148" height="53.23" viewBox="0 0 60.148 53.23"><g transform="translate(-553 -457.774)"><path d="M578.807,483.977l.718-7.977H554l.718,7.977" transform="translate(0 -3.486)" fill="none" stroke="#fff" stroke-linecap="round" stroke-linejoin="round" stroke-width="2"/><circle cx="1.994" cy="1.994" r="1.994" transform="translate(568.358 465.335)" fill="none" stroke="#fff" stroke-linecap="round" stroke-linejoin="round" stroke-width="2"/><circle cx="1.961" cy="1.961" r="1.961" transform="translate(557.232 463.782)" fill="none" stroke="#fff" stroke-linecap="round" stroke-linejoin="round" stroke-width="2"/><path d="M556.3,501.34l1.357,14.884H576.8l.378-4.146" transform="translate(-0.465 -8.613)" fill="none" stroke="#fff" stroke-linecap="round" stroke-linejoin="round" stroke-width="2"/><path d="M555.871,496.65l.057.628" transform="translate(-0.379 -7.664)" fill="none" stroke="#fff" stroke-linecap="round" stroke-linejoin="round" stroke-width="2"/><path d="M578.625,489.988l.364-3.988H554.9l.5,5.456" transform="translate(-0.182 -5.509)" fill="none" stroke="#fff" stroke-linecap="round" stroke-linejoin="round" stroke-width="2"/><path d="M571.878,460.735a1.961,1.961,0,1,1-1.961-1.961,1.94,1.94,0,0,1,.484.061" transform="translate(-2.824)" fill="none" stroke="#fff" stroke-linecap="round" stroke-linejoin="round" stroke-width="2"/><path d="M606.144,463l-11.087,22.334m20.659-15.953-14.358,15.953m-1.932,25.525h3.527m-15.953,0h9.47" transform="translate(-6.678 -0.855)" fill="none" stroke="#fff" stroke-linecap="round" stroke-linejoin="round" stroke-width="2"/><path d="M567.1,491a23.929,23.929,0,0,0,47.7,0Z" transform="translate(-2.651 -6.521)" fill="none" stroke="#fff" stroke-linecap="round" stroke-linejoin="round" stroke-width="2"/></g></svg>