<svg xmlns="http://www.w3.org/2000/svg" width="34.759" height="32.208" viewBox="0 0 34.759 32.208">
  <g id="Group_3898" data-name="Group 3898" transform="translate(0.75 0.75)">
    <path id="Path_965" data-name="Path 965" d="M530.683,203.875a16.685,16.685,0,0,0,33.259,0Z" transform="translate(-530.683 -190.929)" fill="none" stroke="#202020" stroke-linecap="round" stroke-linejoin="round" stroke-width="1.5"/>
    <g id="Group_3896" data-name="Group 3896" transform="translate(1.057)">
      <path id="Path_964" data-name="Path 964" d="M560.85,190.683l-3.616,7.288m6.017-3.795-4.282,4.757" transform="translate(-532.235 -190.683)" fill="none" stroke="#202020" stroke-linecap="round" stroke-linejoin="round" stroke-width="1.5"/>
      <path id="Path_2389" data-name="Path 2389" d="M543.375,199.047a2.884,2.884,0,0,0-5.725.145" transform="translate(-531.87 -190.793)" fill="none" stroke="#202020" stroke-linecap="round" stroke-linejoin="round" stroke-width="1.5"/>
      <path id="Path_2390" data-name="Path 2390" d="M540.989,203.7a4.614,4.614,0,1,0-9.229,0" transform="translate(-531.76 -190.84)" fill="none" stroke="#202020" stroke-linecap="round" stroke-linejoin="round" stroke-width="1.5"/>
      <path id="Path_2391" data-name="Path 2391" d="M546.1,199.7a7.334,7.334,0,0,0-2.641-.608,2.877,2.877,0,0,0-2.842,2.462,4.591,4.591,0,0,1,.534,2.135l.014.017" transform="translate(-531.925 -190.84)" fill="none" stroke="#202020" stroke-linecap="round" stroke-linejoin="round" stroke-width="1.5"/>
      <path id="Path_2392" data-name="Path 2392" d="M557.485,199.2a2.875,2.875,0,0,0-5.434-.835" transform="translate(-532.138 -190.796)" fill="none" stroke="#202020" stroke-linecap="round" stroke-linejoin="round" stroke-width="1.5"/>
      <path id="Path_2393" data-name="Path 2393" d="M563.322,203.7a4.614,4.614,0,1,0-9.228,0" transform="translate(-532.176 -190.84)" fill="none" stroke="#202020" stroke-linecap="round" stroke-linejoin="round" stroke-width="1.5"/>
      <path id="Path_2394" data-name="Path 2394" d="M554.416,201.627a4.612,4.612,0,1,0-8.987,2.055" transform="translate(-532.012 -190.818)" fill="none" stroke="#202020" stroke-linecap="round" stroke-linejoin="round" stroke-width="1.5"/>
    </g>
    <g id="Group_3897" data-name="Group 3897" transform="translate(10.94 30.708)">
      <line id="Line_315" data-name="Line 315" x2="1.23" transform="translate(9.894)" fill="none" stroke="#202020" stroke-linecap="round" stroke-linejoin="round" stroke-width="1.5"/>
      <line id="Line_316" data-name="Line 316" x2="7.266" stroke-width="1.5" stroke="#202020" stroke-linecap="round" stroke-linejoin="round" fill="none"/>
    </g>
  </g>
</svg>
