<svg xmlns="http://www.w3.org/2000/svg" width="63.208" height="57.062" viewBox="0 0 63.208 57.062"><g transform="translate(-1141.18 -224.807)"><path d="M1192.139,240.28l-4.612,1.641a.845.845,0,1,0,.566,1.592l4.613-1.641a.845.845,0,1,0-.567-1.592Z" fill="#202020"/><path d="M1204.175,251.545l-8.92-24.6a3.3,3.3,0,0,0-4.251-1.919L1149.4,240.083a3.305,3.305,0,0,0-1.92,4.251l1.847,5.116h-4.839a3.309,3.309,0,0,0-3.3,3.306v25.807a3.309,3.309,0,0,0,3.3,3.306h44.243a3.309,3.309,0,0,0,3.3-3.306V259.5l10.223-3.7a3.3,3.3,0,0,0,1.919-4.252Zm-55.077-9.034a1.6,1.6,0,0,1,.9-.848l41.6-15.058a1.615,1.615,0,0,1,2.084.934l1.666,4.594-44.592,16.287-1.689-4.673A1.605,1.605,0,0,1,1149.1,242.511Zm41.247,36.052a1.619,1.619,0,0,1-1.617,1.616h-44.243a1.619,1.619,0,0,1-1.617-1.616V252.756a1.619,1.619,0,0,1,1.617-1.616h44.243a1.619,1.619,0,0,1,1.617,1.616Zm12.21-25.193a1.612,1.612,0,0,1-.9.848l-9.625,3.486v-4.948a3.309,3.309,0,0,0-3.3-3.306h-35.874l43.062-15.728,6.675,18.411A1.608,1.608,0,0,1,1202.555,253.37Z" fill="#202020"/><path d="M1164.558,263.789h-14.34a.845.845,0,0,0,0,1.69h14.34a.845.845,0,0,0,0-1.69Z" fill="#202020"/><path d="M1152.268,271.984h-2.05a.845.845,0,0,0,0,1.69h2.05a.845.845,0,0,0,0-1.69Z" fill="#202020"/><path d="M1162.512,271.984h-2.05a.845.845,0,0,0,0,1.69h2.05a.845.845,0,0,0,0-1.69Z" fill="#202020"/><path d="M1183,271.984h-2.05a.845.845,0,1,0,0,1.69H1183a.845.845,0,0,0,0-1.69Z" fill="#202020"/><path d="M1183.839,258.489a.844.844,0,0,0-.844-.845h-6.147a.845.845,0,0,0,0,1.69h6.147A.845.845,0,0,0,1183.839,258.489Z" fill="#202020"/><path d="M1172.756,271.984h-2.05a.845.845,0,0,0,0,1.69h2.05a.845.845,0,0,0,0-1.69Z" fill="#202020"/></g></svg>