<svg xmlns="http://www.w3.org/2000/svg" width="61.355" height="39.479" viewBox="0 0 61.355 39.479"><g transform="translate(-1238.987 -240.801)"><path d="M1296.514,240.8h-53.7a3.832,3.832,0,0,0-3.827,3.828v31.822a3.833,3.833,0,0,0,3.827,3.829h53.7a3.834,3.834,0,0,0,3.828-3.829V244.629A3.833,3.833,0,0,0,1296.514,240.8Zm2.139,35.65a2.141,2.141,0,0,1-2.139,2.139h-53.7a2.141,2.141,0,0,1-2.139-2.139V252.435h57.978Zm0-25.706h-57.978v-6.116a2.141,2.141,0,0,1,2.139-2.138h53.7a2.14,2.14,0,0,1,2.139,2.138Z" fill="#202020"/><path d="M1285.576,260.391h5.966a.845.845,0,0,0,0-1.69h-5.966a.845.845,0,1,0,0,1.69Z" fill="#202020"/><path d="M1247.787,268.346h7.955a.844.844,0,0,0,0-1.689h-7.955a.844.844,0,0,0,0,1.689Z" fill="#202020"/><path d="M1247.787,260.391h19.889a.845.845,0,0,0,0-1.69h-19.889a.845.845,0,0,0,0,1.69Z" fill="#202020"/></g></svg>