<svg xmlns="http://www.w3.org/2000/svg" width="57.178" height="49.777" viewBox="0 0 57.178 49.777"><g transform="translate(-1337.451 -232.445)"><path d="M1391.01,232.445h-49.941a3.622,3.622,0,0,0-3.618,3.62v16.644a3.622,3.622,0,0,0,3.618,3.62h7.48v25.045a.844.844,0,0,0,.844.845h9.17a.991.991,0,0,0,.154,0h14.643c.026,0,.051,0,.077,0s.051,0,.077,0h9.166a.844.844,0,0,0,.844-.845v-9.161a.895.895,0,0,0,0-.167V256.329h7.486a3.623,3.623,0,0,0,3.619-3.619V236.065A3.623,3.623,0,0,0,1391.01,232.445Zm-42.461,14.792h-2.012v-5.705h2.012Zm1.688,33.292v-7.513a8.419,8.419,0,0,1,7.516,7.513Zm31.6,0h-7.513a8.419,8.419,0,0,1,7.513-7.512Zm-9.209,0H1359.45a10.11,10.11,0,0,0-9.213-9.209V241.532h31.6V271.32A10.11,10.11,0,0,0,1372.627,280.529Zm12.909-39v5.705h-2.012v-5.705Zm7.405,11.178a1.933,1.933,0,0,1-1.931,1.929h-7.486v-5.712h2.856a.844.844,0,0,0,.844-.845v-7.394a.844.844,0,0,0-.844-.845h-40.687a.844.844,0,0,0-.844.845v7.394a.844.844,0,0,0,.844.845h2.856v5.712h-7.48a1.932,1.932,0,0,1-1.93-1.93V236.065a1.932,1.932,0,0,1,1.93-1.93h49.941a1.933,1.933,0,0,1,1.931,1.93Z" fill="#202020"/><path d="M1366.224,254.957c-2.63-.593-3.965-1.742-3.965-3.414a3.483,3.483,0,0,1,3.778-3.4,3.776,3.776,0,0,1,3.727,3.151.846.846,0,0,0,1.667-.285,5.457,5.457,0,0,0-4.548-4.479v-1.543a.845.845,0,1,0-1.689,0v1.541a5.069,5.069,0,0,0-4.623,5.01c0,1.766.915,4.078,5.282,5.063,2.63.593,3.964,1.742,3.964,3.412a3.484,3.484,0,0,1-3.779,3.395,3.783,3.783,0,0,1-3.779-3.779.844.844,0,1,0-1.688,0,5.461,5.461,0,0,0,4.623,5.383v1.558a.845.845,0,1,0,1.689,0v-1.547a5.068,5.068,0,0,0,4.622-5.01C1371.505,258.254,1370.589,255.943,1366.224,254.957Z" fill="#202020"/></g></svg>