<svg xmlns="http://www.w3.org/2000/svg" width="31.357" height="30.159" viewBox="0 0 31.357 30.159"><path d="M1177.443,65.578a.6.6,0,0,0-.484-.408L1166.853,63.7l-4.52-9.158a.6.6,0,0,0-1.076,0l-1.868,3.783-1.741-.253-1.892-3.835a.625.625,0,0,0-1.076,0l-1.893,3.835-4.232.615a.6.6,0,0,0-.333,1.023l3.063,2.986-.317,1.842-4.338.631a.6.6,0,0,0-.333,1.023l7.313,7.129-1.726,10.066a.6.6,0,0,0,.592.7.614.614,0,0,0,.279-.068l9.04-4.753,9.039,4.753a.6.6,0,0,0,.871-.633l-1.726-10.066,7.313-7.129A.6.6,0,0,0,1177.443,65.578Zm-25.094-3.52L1149.93,59.7l3.341-.486a.6.6,0,0,0,.453-.328l1.494-3.028,1.494,3.028a.6.6,0,0,0,.452.328l1.667.242-2.1,4.244-4.518.657.3-1.769A.6.6,0,0,0,1152.349,62.058Zm16.566,10.625a.6.6,0,0,0-.173.531l1.574,9.179-8.242-4.334a.6.6,0,0,0-.558,0l-8.244,4.334,1.575-9.179a.6.6,0,0,0-.173-.531l-6.669-6.5,9.216-1.34a.6.6,0,0,0,.452-.328l4.122-8.351,4.121,8.351a.6.6,0,0,0,.452.328l9.216,1.34Z" transform="translate(-1146.116 -53.931)" fill="#202020"/></svg>