<svg xmlns="http://www.w3.org/2000/svg" width="38.639" height="37.4" viewBox="0 0 38.639 37.4"><g transform="translate(1.234 0.907)"><path d="M1363.231,172.332c-3.3-1.082-4.085-1.391-4.085-2.79,0-1.518,1.785-2.345,3.488-2.366a.646.646,0,0,0,.132,0c1.976.016,3,.754,3.51,2.533a.6.6,0,1,0,1.153-.333A4.234,4.234,0,0,0,1363.3,166V164.2a.6.6,0,1,0-1.2,0V166c-2.111.2-4.154,1.422-4.154,3.538,0,2.322,1.641,2.859,4.979,3.953,3.373,1.105,3.918,1.839,3.918,3.167,0,1.614-2.032,2.348-4.117,2.368h-.027c-.017,0-.032,0-.053,0a3.247,3.247,0,0,1-3.5-3.015.58.58,0,0,0-.648-.528.613.613,0,0,0-.545.662,4.456,4.456,0,0,0,4.149,4.086v1.772a.6.6,0,1,0,1.2,0v-1.8c2.862-.17,4.743-1.553,4.743-3.549C1368.042,174.335,1366.444,173.385,1363.231,172.332Z" transform="translate(-1334.2 -146.114)" fill="#fff"/><path d="M1372.816,159.54h-3.457L1358.332,147.2a.625.625,0,0,0-.89-.047.638.638,0,0,0-.047.9l10.269,11.492h-27.019l10.212-11.494a.639.639,0,0,0-.049-.9.627.627,0,0,0-.89.05l-10.963,12.34h-3.52a.635.635,0,0,0,0,1.269h2.038l3.574,18.316a.632.632,0,0,0,.618.512h12.959a.635.635,0,0,0,0-1.269h-12.441l-3.427-17.559h30.8l-.846,4.261a.629.629,0,1,0,1.234.25l.9-4.511h1.973a.635.635,0,0,0,0-1.269Z" transform="translate(-1336.04 -147.895)" fill="#fff"/></g></svg>