<svg xmlns="http://www.w3.org/2000/svg" width="45.977" height="44.503" viewBox="0 0 45.977 44.503">
  <g id="Purchase_icon" data-name="Purchase icon" transform="translate(0 0)">
    <path id="Path_2686" data-name="Path 2686" d="M1364.549,174.509c-4.129-1.352-5.1-1.738-5.1-3.486,0-1.9,2.23-2.93,4.358-2.956a.807.807,0,0,0,.165,0c2.469.02,3.743.942,4.385,3.165a.75.75,0,1,0,1.441-.416,5.29,5.29,0,0,0-5.16-4.222v-2.243a.749.749,0,1,0-1.5,0V166.6c-2.637.245-5.19,1.777-5.19,4.42,0,2.9,2.05,3.572,6.221,4.939,4.214,1.381,4.9,2.3,4.9,3.957,0,2.017-2.539,2.934-5.144,2.959h-.034c-.021,0-.04,0-.066,0a4.057,4.057,0,0,1-4.375-3.767.724.724,0,0,0-.81-.66.766.766,0,0,0-.681.827,5.567,5.567,0,0,0,5.184,5.105V186.6a.749.749,0,1,0,1.5,0v-2.244c3.576-.212,5.926-1.94,5.926-4.434C1370.56,177.012,1368.563,175.825,1364.549,174.509Z" transform="translate(-1329.035 -142.844)" fill="#2657be"/>
    <path id="Path_2687" data-name="Path 2687" d="M1380.034,161.815h-4.113L1362.8,147.237a.75.75,0,0,0-1.116,1l12.219,13.575h-32.15l12.152-13.577a.75.75,0,0,0-1.118-1l-13.045,14.577h-4.188a.75.75,0,0,0,0,1.5h2.425l4.253,21.636a.751.751,0,0,0,.736.6h15.42a.75.75,0,0,0,0-1.5h-14.8l-4.078-20.741h36.65l-1.007,5.034a.749.749,0,1,0,1.468.295l1.069-5.329h2.348a.75.75,0,0,0,0-1.5Z" transform="translate(-1334.806 -146.988)" fill="#2657be"/>
  </g>
</svg>
