<svg xmlns="http://www.w3.org/2000/svg" width="34.574" height="32.351" viewBox="0 0 34.574 32.351"><g transform="translate(-94.873 -466.867)"><path d="M128.848,475.767h-6.076v-8.3a.6.6,0,0,0-.6-.6H102.147a.6.6,0,0,0-.6.6v8.3H95.473a.6.6,0,0,0-.6.6V490.83a.6.6,0,0,0,.6.6h6.075v7.188a.6.6,0,0,0,.6.6h20.026a.6.6,0,0,0,.6-.6V491.43h6.076a.6.6,0,0,0,.6-.6V476.367A.6.6,0,0,0,128.848,475.767Zm-26.1-7.7h18.826v7.7H102.747Zm18.826,29.951H102.747V485.867h18.826Zm6.675-7.789h-5.476v-4.962a.6.6,0,0,0-.6-.6H102.147a.6.6,0,0,0-.6.6v4.962H96.072V476.967h32.176Z" fill="#202020"/><path d="M121.573,480.817a.6.6,0,0,0,.6.6H124.4a.6.6,0,1,0,0-1.2h-2.225A.6.6,0,0,0,121.573,480.817Z" fill="#202020"/><path d="M117.723,493.568H106.6a.6.6,0,0,0,0,1.2h11.125a.6.6,0,0,0,0-1.2Z" fill="#202020"/><path d="M117.723,489.118H106.6a.6.6,0,1,0,0,1.2h11.125a.6.6,0,0,0,0-1.2Z" fill="#202020"/><path d="M99.922,479.1a1.712,1.712,0,1,0,1.712,1.712A1.714,1.714,0,0,0,99.922,479.1Zm0,2.225a.513.513,0,1,1,.513-.513A.514.514,0,0,1,99.922,481.329Z" fill="#202020"/></g></svg>