<svg xmlns="http://www.w3.org/2000/svg" width="36.799" height="35.619" viewBox="0 0 36.799 35.619"><g transform="translate(-1334.806 -146.988)"><path d="M1363.231,172.332c-3.3-1.082-4.085-1.391-4.085-2.79,0-1.518,1.785-2.345,3.488-2.366a.646.646,0,0,0,.132,0c1.976.016,3,.754,3.51,2.533a.6.6,0,1,0,1.153-.333A4.234,4.234,0,0,0,1363.3,166V164.2a.6.6,0,1,0-1.2,0V166c-2.111.2-4.154,1.422-4.154,3.538,0,2.322,1.641,2.859,4.979,3.953,3.373,1.105,3.918,1.839,3.918,3.167,0,1.614-2.032,2.348-4.117,2.368h-.027c-.017,0-.032,0-.053,0a3.247,3.247,0,0,1-3.5-3.015.58.58,0,0,0-.648-.528.613.613,0,0,0-.545.662,4.456,4.456,0,0,0,4.149,4.086v1.772a.6.6,0,1,0,1.2,0v-1.8c2.862-.17,4.743-1.553,4.743-3.549C1368.042,174.335,1366.444,173.385,1363.231,172.332Z" fill="#202020"/><path d="M1371.006,158.855h-3.292l-10.5-11.668a.6.6,0,0,0-.893.8l9.78,10.865h-25.732l9.726-10.867a.6.6,0,0,0-.9-.8l-10.441,11.667h-3.352a.6.6,0,0,0,0,1.2h1.941l3.4,17.317a.6.6,0,0,0,.589.484h12.342a.6.6,0,0,0,0-1.2h-11.849l-3.264-16.6H1367.9l-.806,4.029a.6.6,0,1,0,1.175.236l.856-4.265h1.879a.6.6,0,0,0,0-1.2Z" fill="#202020"/></g></svg>