<svg xmlns="http://www.w3.org/2000/svg" width="17.851" height="20.445" viewBox="0 0 17.851 20.445"><g transform="translate(0 0)"><path d="M121.65,396.542h-4.687v-.829a1.766,1.766,0,0,0-1.765-1.764h-3.95a1.766,1.766,0,0,0-1.765,1.764v.829H104.8a.5.5,0,0,0,0,1h1.312l.91,14.774a2.116,2.116,0,0,0,2.087,2.078h8.237a2.11,2.11,0,0,0,2.077-2.057l.91-14.8h1.318a.5.5,0,0,0,0-1Zm-11.167-.829a.765.765,0,0,1,.765-.764h3.95a.765.765,0,0,1,.765.764v.829h-5.48Zm7.94,16.583a1.115,1.115,0,0,1-1.088,1.1h-8.217a1.122,1.122,0,0,1-1.1-1.119l-.908-14.733h12.219Z" transform="translate(-104.299 -393.949)" fill="#212121"/><path d="M115.79,411.8h.027a.5.5,0,0,0,.5-.472l.649-11.667a.5.5,0,0,0-1-.056l-.649,11.667A.5.5,0,0,0,115.79,411.8Z" transform="translate(-104.299 -393.949)" fill="#212121"/><path d="M113.225,411.8a.5.5,0,0,0,.5-.5V399.634a.5.5,0,0,0-1,0V411.3A.5.5,0,0,0,113.225,411.8Z" transform="translate(-104.299 -393.949)" fill="#212121"/><path d="M110.632,411.8h.027a.5.5,0,0,0,.472-.527l-.649-11.667a.486.486,0,0,0-.526-.471.5.5,0,0,0-.472.527l.649,11.667A.5.5,0,0,0,110.632,411.8Z" transform="translate(-104.299 -393.949)" fill="#212121"/></g></svg>