<svg xmlns="http://www.w3.org/2000/svg" width="25.261" height="19.651" viewBox="0 0 25.261 19.651"><g transform="translate(0 0)"><path d="M306.974,406.123c.016-.012.036-.017.051-.03l3.583-3.057a.6.6,0,0,0-.779-.913l-2.643,2.255a8.62,8.62,0,0,1,14.712-5.89.6.6,0,1,0,.848-.849,9.829,9.829,0,0,0-16.739,6.129l-1.721-2.344a.6.6,0,0,0-.967.71l2.833,3.858c.009.013.025.019.035.032a.577.577,0,0,0,.114.1.48.48,0,0,0,.068.042.594.594,0,0,0,.144.048c.018,0,.034.015.053.018l.06,0,.008,0c.024,0,.046,0,.07,0s.041-.016.063-.021a.533.533,0,0,0,.117-.038A.526.526,0,0,0,306.974,406.123Z" transform="translate(-303.202 -394.762)" fill="#212121"/><path d="M328.347,407.038l-2.911-3.954a.593.593,0,0,0-.053-.047.6.6,0,0,0-.1-.092.506.506,0,0,0-.087-.044.531.531,0,0,0-.135-.043.326.326,0,0,0-.044-.014.478.478,0,0,0-.064.006.554.554,0,0,0-.071-.005.524.524,0,0,0-.052.017.624.624,0,0,0-.224.1.52.52,0,0,0-.051.029l-3.505,3.152a.6.6,0,1,0,.8.892l2.564-2.3a8.616,8.616,0,0,1-14.71,5.952.6.6,0,0,0-.85.849,9.752,9.752,0,0,0,6.925,2.879,10.02,10.02,0,0,0,1.243-.078,9.84,9.84,0,0,0,8.575-9.008l1.784,2.423a.6.6,0,1,0,.967-.712Z" transform="translate(-303.202 -394.762)" fill="#212121"/></g></svg>