<svg xmlns="http://www.w3.org/2000/svg" width="31.229" height="31.23" viewBox="0 0 31.229 31.23"><g transform="translate(0)"><path d="M1222.967,63.846a3.1,3.1,0,1,0-3.1,3.1A3.107,3.107,0,0,0,1222.967,63.846Zm-5.005,0a1.9,1.9,0,1,1,1.9,1.9A1.9,1.9,0,0,1,1217.962,63.846Z" transform="translate(-1209.755 -52.735)" fill="#202020"/><path d="M1230.875,69.752a3.1,3.1,0,1,0,3.1,3.1A3.106,3.106,0,0,0,1230.875,69.752Zm0,5.005a1.9,1.9,0,1,1,1.9-1.9A1.9,1.9,0,0,1,1230.875,74.757Z" transform="translate(-1209.755 -52.735)" fill="#202020"/><path d="M1232.8,60.918a.6.6,0,0,0-.848,0l-14.014,14.015a.6.6,0,1,0,.848.848L1232.8,61.767A.6.6,0,0,0,1232.8,60.918Z" transform="translate(-1209.755 -52.735)" fill="#202020"/><path d="M1239.784,68.35l1.154-2.772a.6.6,0,0,0-.133-.66l-2.123-2.076v-3a.6.6,0,0,0-.366-.552l-2.728-1.156-1.157-2.73a.6.6,0,0,0-.553-.366h-3l-2.075-2.121a.6.6,0,0,0-.659-.135l-2.773,1.156-2.772-1.156a.6.6,0,0,0-.66.135l-2.076,2.121h-3a.6.6,0,0,0-.552.366l-1.157,2.73-2.729,1.156a.6.6,0,0,0-.365.552v3l-2.123,2.076a.6.6,0,0,0-.134.66l1.155,2.772-1.155,2.772a.6.6,0,0,0,.134.66l2.123,2.075v3a.6.6,0,0,0,.365.553l2.729,1.156,1.157,2.729a.6.6,0,0,0,.552.367h3l2.076,2.121a.6.6,0,0,0,.66.134l2.772-1.154,2.773,1.154a.578.578,0,0,0,.23.047.6.6,0,0,0,.429-.181l2.075-2.121h3a.6.6,0,0,0,.553-.366l1.157-2.73,2.728-1.156a.6.6,0,0,0,.366-.553v-3l2.123-2.075a.6.6,0,0,0,.133-.66Zm-1.2.231,1.1,2.627-2.013,1.968a.6.6,0,0,0-.18.429v2.856l-2.586,1.1a.6.6,0,0,0-.319.317l-1.1,2.587h-2.855a.6.6,0,0,0-.429.181l-1.967,2.011L1225.6,81.56a.6.6,0,0,0-.461,0l-2.628,1.1-1.969-2.012a.6.6,0,0,0-.429-.181h-2.855l-1.1-2.586a.6.6,0,0,0-.318-.318l-2.588-1.1V73.605a.6.6,0,0,0-.18-.429l-2.013-1.968,1.1-2.627a.6.6,0,0,0,0-.462l-1.1-2.627,2.013-1.969a.6.6,0,0,0,.18-.428V60.239l2.588-1.1a.6.6,0,0,0,.318-.319l1.1-2.587h2.855a.6.6,0,0,0,.429-.18l1.969-2.012,2.628,1.1a.594.594,0,0,0,.461,0l2.628-1.1,1.967,2.012a.6.6,0,0,0,.429.18h2.855l1.1,2.588a.6.6,0,0,0,.319.318l2.586,1.1V63.1a.6.6,0,0,0,.18.428l2.013,1.969-1.1,2.627A.607.607,0,0,0,1238.58,68.581Z" transform="translate(-1209.755 -52.735)" fill="#202020"/></g></svg>