<svg xmlns="http://www.w3.org/2000/svg" width="37.242" height="50.576" viewBox="0 0 37.242 50.576">
  <g id="Group_3983" data-name="Group 3983" transform="translate(-128.638 87)">
    <g id="Group_4230" data-name="Group 4230" transform="translate(128.637 -87)">
      <g id="Food_icon" data-name="Food icon" transform="translate(0 6.235)">
        <g id="layer2" transform="translate(23.564 24.99)">
          <path id="Path_2584" data-name="Path 2584" d="M1301.178,300.517A2.178,2.178,0,0,1,1299,298.34V281.916a.75.75,0,0,1,1.5,0v16.421a.678.678,0,0,0,.677.68h0a.678.678,0,0,0,.677-.679V281.916a.75.75,0,0,1,1.5,0v16.421a2.178,2.178,0,0,1-2.176,2.18Z" transform="translate(-1299.001 -281.166)" fill="#19c600"/>
        </g>
        <g id="layer1">
          <path id="Path_2585" data-name="Path 2585" d="M1281.188,300.515a2.182,2.182,0,0,1-2.179-2.177V275.959a4.853,4.853,0,0,1-3.571-4.767l.715-14.3a.75.75,0,0,1,.749-.712h8.569a.751.751,0,0,1,.749.712l.718,14.28a4.861,4.861,0,0,1-3.574,4.792v22.377a2.181,2.181,0,0,1-2.176,2.178Zm-3.572-42.839-.678,13.567a3.347,3.347,0,0,0,2.918,3.36.751.751,0,0,1,.653.744v22.99a.679.679,0,0,0,.678.678h0a.679.679,0,0,0,.676-.678v-22.99a.751.751,0,0,1,.654-.744,3.352,3.352,0,0,0,2.92-3.384l-.68-13.543h-1.394v9.96a.75.75,0,0,1-1.5,0v-9.96h-1.355v9.96a.75.75,0,0,1-1.5,0v-9.96Zm24.99,24.99h-3.569a4.325,4.325,0,0,1-4.32-4.32V264.065a7.9,7.9,0,0,1,7.889-7.889.75.75,0,0,1,.75.75v24.99A.75.75,0,0,1,1302.606,282.666Zm-.75-24.946a6.4,6.4,0,0,0-5.639,6.345v14.281a2.824,2.824,0,0,0,2.82,2.82h2.819Z" transform="translate(-1275.437 -256.176)" fill="#19c600"/>
        </g>
      </g>
      <g id="Group_4229" data-name="Group 4229" transform="translate(15.748)">
        <circle id="Ellipse_60" data-name="Ellipse 60" cx="10.747" cy="10.747" r="10.747" fill="#19c600"/>
      </g>
      <g id="layer1-2" data-name="layer1" transform="translate(21.771 7.544)">
        <path id="Path_2586" data-name="Path 2586" d="M1300.747,263.892a.5.5,0,0,1-.353-.147l-3.039-3.038a.5.5,0,1,1,.708-.707l2.684,2.685,5.055-5.054a.5.5,0,0,1,.707.707l-5.408,5.407A.5.5,0,0,1,1300.747,263.892Z" transform="translate(-1297.209 -257.485)" fill="#fff"/>
      </g>
    </g>
  </g>
</svg>
