<svg xmlns="http://www.w3.org/2000/svg" width="35.055" height="28.624" viewBox="0 0 35.055 28.624"><path d="M1483.527,67.729h-9.145a.6.6,0,0,0-.6.6v6.359a.6.6,0,0,0,.6.6h9.145a.6.6,0,0,0,.6-.6V68.33A.6.6,0,0,0,1483.527,67.729Zm-.6,6.36h-7.947V68.93h7.947Z" transform="translate(-1455.086 -53.985)" fill="#202020"/><path d="M1485.941,54.522a1.652,1.652,0,0,0-1.208-.537h-24.245a1.673,1.673,0,0,0-1.232.567c-4.168,5.294-4.168,5.572-4.168,5.816v.811a3.014,3.014,0,0,0,1.8,2.851V82.009a.6.6,0,0,0,.6.6h30.222a.6.6,0,0,0,.6-.6V64.043a3.031,3.031,0,0,0,1.833-2.7v-.981C1490.141,60.12,1490.141,59.844,1485.941,54.522Zm-8.741.663,1.974,4.717a.575.575,0,0,1,.072.277v1.158a1.823,1.823,0,0,1-1.834,1.756h-9.7a1.818,1.818,0,0,1-1.759-1.895V60.165a.7.7,0,0,1,.093-.325l1.843-4.655ZM1456.287,61.2v-.708c.32-.551,2.192-3.012,3.879-5.158a.438.438,0,0,1,.322-.148h6.108l-1.642,4.155a1.758,1.758,0,0,0-.2.828v1.011c0,.038.007.074.007.111,0,.013-.008.024-.008.037a1.807,1.807,0,0,1-.571,1.268,1.779,1.779,0,0,1-1.32.493l-4.815,0A1.825,1.825,0,0,1,1456.287,61.2Zm6.184,20.209V68.93h6.534V81.408Zm7.733,0V68.33a.6.6,0,0,0-.6-.6h-7.733a.6.6,0,0,0-.6.6V81.409h-3.185V64.292l4.757,0a2.985,2.985,0,0,0,2.159-.819.295.295,0,1,1,.564-.129,3.009,3.009,0,0,0,2.124.952h9.741a2.914,2.914,0,0,1,4.756,0l4.846,0h.075v17.12Zm18.737-20.082a1.823,1.823,0,0,1-1.833,1.762h-.057l-4.846,0a1.82,1.82,0,0,1-1.758-1.875s0-.007,0-.011V60.179a1.687,1.687,0,0,0-.192-.8l-1.752-4.195h6.232a.431.431,0,0,1,.3.115c1.719,2.179,3.59,4.637,3.912,5.187Z" transform="translate(-1455.086 -53.985)" fill="#202020"/></svg>