<svg xmlns="http://www.w3.org/2000/svg" width="36.691" height="36.69" viewBox="0 0 36.691 36.69"><path d="M1177.265,144.893h-29.65a4.167,4.167,0,0,0-4.166,4.168v29.217a3.3,3.3,0,0,0,3.3,3.3h12.678a.6.6,0,0,0,0-1.2h-12.678a2.1,2.1,0,0,1-2.1-2.1V149.06a2.971,2.971,0,0,1,2.967-2.967h29.65a1.678,1.678,0,0,1,1.675,1.675v13.1a.6.6,0,0,0,1.2,0v-13.1A2.878,2.878,0,0,0,1177.265,144.893Z" transform="translate(-1143.449 -144.893)" fill="#202020"/><path d="M1162.018,162.442l-11.633-11.461-.842.854,11.61,11.44h-9.036v1.2h11.1v-11.1h-1.2Z" transform="translate(-1143.449 -144.893)" fill="#202020"/><path d="M1170.371,174.857a.6.6,0,0,0-.6.6v2.45a.6.6,0,1,0,1.2,0v-2.45A.6.6,0,0,0,1170.371,174.857Z" transform="translate(-1143.449 -144.893)" fill="#202020"/><path d="M1180.128,172.327a.618.618,0,0,0-.066-.224.579.579,0,0,0-.065-.1.6.6,0,0,0-.08-.08.649.649,0,0,0-.092-.063.625.625,0,0,0-.113-.046c-.019-.006-.034-.019-.055-.024s-.038,0-.057,0-.039-.012-.06-.012h-.307l-4.977-5.531a.6.6,0,0,0-.893.8l4.255,4.728h-11.032l4.232-4.729a.6.6,0,0,0-.894-.8l-4.949,5.53h-.3c-.021,0-.039.01-.06.012a.524.524,0,0,0-.056,0,.407.407,0,0,0-.057.024.593.593,0,0,0-.11.045.56.56,0,0,0-.094.064.538.538,0,0,0-.079.079.615.615,0,0,0-.065.1.652.652,0,0,0-.043.1.622.622,0,0,0-.024.121.541.541,0,0,0-.012.059c0,.019.01.036.011.055a.6.6,0,0,0,0,.061l1.69,8.6a.6.6,0,0,0,.589.484h11.462a.6.6,0,0,0,.588-.482l1.719-8.6c0-.021,0-.041,0-.063s.011-.035.011-.054A.517.517,0,0,0,1180.128,172.327Zm-2.8,8.056h-10.476l-1.455-7.4h13.409Z" transform="translate(-1143.449 -144.893)" fill="#202020"/><path d="M1173.81,174.857a.6.6,0,0,0-.6.6v2.45a.6.6,0,1,0,1.2,0v-2.45A.6.6,0,0,0,1173.81,174.857Z" transform="translate(-1143.449 -144.893)" fill="#202020"/></svg>