<svg xmlns="http://www.w3.org/2000/svg" xmlns:xlink="http://www.w3.org/1999/xlink" width="55.807" height="73.385" viewBox="0 0 55.807 73.385"><defs><linearGradient id="a" x1="0.691" y1="0.151" x2="1.649" y2="0.901" gradientUnits="objectBoundingBox"><stop offset="0" stop-color="#f5311a"/><stop offset="1" stop-color="#f26b1e"/></linearGradient></defs><g transform="translate(0.093 0)"><path d="M763.382,935.791a19.62,19.62,0,0,1-7.748,5.8,20.652,20.652,0,0,1-2.309.817,20.169,20.169,0,0,1-8.342.786,8.952,8.952,0,0,1-4.026-1.6,10.08,10.08,0,0,1-2.845-3.7c-.187-.376-.361-.758-.527-1.139a35.426,35.426,0,0,1-2.764-18.245,32.271,32.271,0,0,1,1.858-7.318.106.106,0,0,1,0-.014,22.976,22.976,0,0,1,10.086-12.2,1.7,1.7,0,0,1,2.494,1.907q-.124.476-.234.958a30.532,30.532,0,0,0,.719,16.825,26.935,26.935,0,0,0,5.271,8.907,31.652,31.652,0,0,0,4.438,4.109q1.327,1.018,2.742,1.91a5.266,5.266,0,0,1,1.444.985C763.84,934.876,763.818,935.243,763.382,935.791Z" transform="translate(-730.633 -871.158)" fill="url(#a)"/><path d="M743.456,627.537a22.807,22.807,0,0,1-2.49,4.075c-.156.188-.317.37-.48.548q-.165.194-.334.381a15.771,15.771,0,0,1-25.913-3.556,15.019,15.019,0,0,1-1.6-8.479c0-.009,0-.017,0-.026a.723.723,0,0,1,1.308-.336,4.7,4.7,0,0,0,.551.635,4.768,4.768,0,0,0,3.272,1.324q.218,0,.437-.018l.058-.005.054-.006a4.87,4.87,0,0,0,3.182-1.724c.079-.1.153-.192.223-.291a4.95,4.95,0,0,0,.843-3q0-.053-.005-.105a4.839,4.839,0,0,0-1-2.535,4.169,4.169,0,0,0-1.758-1.336,8.868,8.868,0,0,0-2.883-.547,23.446,23.446,0,0,0-7.613.829,24.411,24.411,0,0,0-6.852,3.19q-.476.317-.938.655-.353.256-.7.525-.535.436-1.049.9l-.056.05a7.3,7.3,0,0,0-.914,1.046,4.527,4.527,0,0,1-8.133-3.2,27.738,27.738,0,0,1,.539-3.159v0a27.812,27.812,0,0,1,43.5-16.166l.016.011a27.849,27.849,0,0,1,10.231,14.5.007.007,0,0,1,0,0A23.6,23.6,0,0,1,743.456,627.537Z" transform="translate(-690.645 -591.848)" fill="url(#a)"/></g><path d="M941.94,1081.317a.8.8,0,0,0-1.286.935c3.175,6.135,9.805,15.867,18.839,15.351,10.275-.587,13.867-5.985,14.306-12.583a2.514,2.514,0,0,0-3.835-2.3C963.605,1086.661,951.1,1090.445,941.94,1081.317Z" transform="translate(-917.997 -1037.092)" fill="url(#a)"/><path d="M695.268,951.081c-1.58,2.618-2.9,6.9-3.683,11.909a.912.912,0,0,1-1.81-.08c-.478-7.1-.051-12.872,3.365-13.976l.07-.022C694.529,948.508,695.982,949.9,695.268,951.081Z" transform="translate(-689.612 -916.748)" fill="url(#a)"/><path d="M1078.929,1302.545a1.622,1.622,0,0,0,.72,2.962,8.763,8.763,0,0,1,4.2,1.666c3.581,2.65,7.206-.732,9.709-4.911s-5.118-5.831-12-1.424Q1080.132,1301.746,1078.929,1302.545Z" transform="translate(-1043.269 -1234.726)" fill="url(#a)"/></svg>